<svg xmlns="http://www.w3.org/2000/svg" viewBox="0 0 241.13 76.9662">
  <path d="M 142.93 67.75 C 146.08 70.81 151.11 70.79 154.23 67.68 L 165.41 56.5 C 163.83 54.92 161.93 53.87 159.91 53.33 C 155.82 52.24 151.28 53.29 148.07 56.5 L 139.87 64.7 L 139.87 64.7 L 142.92 67.74 L 142.93 67.75 Z" fill="#FF6A42" fill-rule="evenodd"/>
  <path d="M 154.23 67.68 C 151.11 70.78 146.08 70.8 142.93 67.75 L 139.88 64.71 L 139.88 64.71 C 136.67 61.51 132.13 60.46 128.04 61.56 C 126.03 62.1 124.13 63.16 122.55 64.74 L 131.23 73.39 C 134.44 76.59 138.98 77.64 143.07 76.55 C 145.08 76.01 146.97 74.96 148.55 73.38 L 148.55 73.38 L 154.26 67.67 C 154.26 67.67 154.25 67.68 154.24 67.69 L 154.23 67.68 Z" fill="#03CEA4" fill-rule="evenodd"/>
  <path d="M 52.11 61.93 L 52.11 0.0 L 63.67 0.0 L 63.67 61.92 L 52.11 61.92 L 52.11 61.93 Z" fill="#2B307E" fill-rule="evenodd"/>
  <path d="M 92.25 52.37 C 94.61 52.37 96.65 51.81 98.37 50.68 C 100.08 49.56 101.41 48.04 102.34 46.12 C 103.27 44.21 103.73 42.07 103.73 39.71 C 103.73 37.35 103.27 35.21 102.34 33.3 C 101.41 31.39 100.09 29.87 98.37 28.74 C 96.65 27.62 94.62 27.05 92.25 27.05 C 89.88 27.05 87.85 27.61 86.13 28.74 C 84.41 29.87 83.09 31.38 82.17 33.3 C 81.24 35.21 80.78 37.35 80.78 39.71 C 80.78 42.07 81.24 44.21 82.17 46.12 C 83.1 48.03 84.42 49.55 86.13 50.68 C 87.84 51.81 89.88 52.37 92.25 52.37 Z M 92.25 62.24 C 87.81 62.24 83.84 61.24 80.36 59.25 C 76.87 57.25 74.12 54.55 72.09 51.15 C 70.06 47.75 69.05 43.94 69.05 39.72 C 69.05 35.5 70.06 31.69 72.09 28.29 C 74.12 24.89 76.87 22.19 80.36 20.19 C 83.85 18.2 87.81 17.2 92.25 17.2 C 96.69 17.2 100.66 18.2 104.14 20.19 C 107.63 22.19 110.38 24.89 112.41 28.29 C 114.44 31.69 115.45 35.5 115.45 39.72 C 115.45 43.94 114.44 47.75 112.41 51.15 C 110.38 54.55 107.63 57.25 104.14 59.25 C 100.65 61.24 96.69 62.24 92.25 62.24 Z" fill="#2B307E" fill-rule="evenodd"/>
  <path d="M 33.28 46.48 C 32.35 48.39 31.03 49.91 29.31 51.04 C 27.59 52.17 25.56 52.73 23.19 52.73 C 20.82 52.73 18.79 52.17 17.07 51.04 C 15.35 49.92 14.03 48.4 13.11 46.48 C 12.18 44.57 11.72 42.43 11.72 40.07 C 11.72 37.71 12.18 35.57 13.11 33.66 C 14.04 31.75 15.36 30.23 17.07 29.1 C 18.78 27.98 20.82 27.41 23.19 27.41 C 25.56 27.41 27.59 27.97 29.31 29.1 C 31.02 30.23 32.35 31.74 33.28 33.66 C 34.21 35.57 34.67 37.71 34.67 40.07 C 34.67 42.43 34.21 44.57 33.28 46.48 Z M 43.36 28.64 C 41.33 25.24 38.58 22.54 35.09 20.54 C 31.6 18.55 27.64 17.55 23.2 17.55 C 18.76 17.55 14.98 18.51 11.56 20.41 L 11.56 0.0 L 0.0 0.0 L 0.0 40.05 L 0.0 40.05 C 0.0 40.05 0.0 40.06 0.0 40.07 C 0.0 44.29 1.01 48.1 3.04 51.5 C 5.07 54.9 7.82 57.6 11.31 59.6 C 14.8 61.59 18.76 62.59 23.2 62.59 C 27.64 62.59 31.61 61.59 35.09 59.6 C 38.58 57.6 41.33 54.9 43.36 51.5 C 45.39 48.1 46.4 44.29 46.4 40.07 C 46.4 35.85 45.39 32.04 43.36 28.64 Z" fill="#2B307E" fill-rule="evenodd"/>
  <path d="M 170.37 62.01 L 170.37 36.45 C 170.37 33.08 171.19 29.98 172.82 27.17 C 174.45 24.36 176.8 22.12 179.86 20.46 C 182.92 18.8 186.62 17.97 190.95 17.97 C 193.03 17.97 194.96 18.21 196.73 18.69 C 198.5 19.17 200.15 19.86 201.66 20.76 C 203.18 21.66 204.5 22.73 205.62 23.97 L 205.7 23.97 C 206.88 22.73 208.23 21.66 209.75 20.76 C 211.27 19.86 212.93 19.17 214.73 18.69 C 216.53 18.21 218.47 17.97 220.55 17.97 C 224.88 17.97 228.58 18.8 231.64 20.46 C 234.71 22.12 237.05 24.35 238.68 27.17 C 240.31 29.98 241.13 33.08 241.13 36.45 L 241.13 62.01 L 229.57 62.01 L 229.57 36.45 C 229.57 34.88 229.16 33.44 228.35 32.15 C 227.53 30.86 226.45 29.82 225.1 29.03 C 223.75 28.24 222.23 27.85 220.54 27.85 C 218.85 27.85 217.4 28.25 216.03 29.03 C 214.65 29.82 213.56 30.86 212.74 32.15 C 211.92 33.44 211.52 34.88 211.52 36.45 L 211.52 62.01 L 199.96 62.01 L 199.96 36.45 C 199.96 34.88 199.55 33.44 198.74 32.15 C 197.92 30.86 196.84 29.82 195.49 29.03 C 194.14 28.24 192.62 27.85 190.93 27.85 C 189.24 27.85 187.79 28.25 186.42 29.03 C 185.04 29.82 183.94 30.86 183.13 32.15 C 182.31 33.44 181.91 34.88 181.91 36.45 L 181.91 62.01 L 170.35 62.01 L 170.37 62.01 Z" fill="#2B307E" fill-rule="evenodd"/>
  <path d="M 142.74 40.41 C 145.1 40.41 147.14 39.85 148.86 38.72 C 150.57 37.6 151.9 36.08 152.83 34.16 C 153.76 32.25 154.22 30.11 154.22 27.75 C 154.22 25.39 153.76 23.25 152.83 21.34 C 151.9 19.43 150.58 17.91 148.86 16.78 C 147.14 15.66 145.11 15.09 142.74 15.09 C 140.37 15.09 138.34 15.65 136.62 16.78 C 134.9 17.91 133.58 19.42 132.66 21.34 C 131.73 23.25 131.27 25.39 131.27 27.75 C 131.27 30.11 131.73 32.25 132.66 34.16 C 133.59 36.07 134.91 37.59 136.62 38.72 C 138.33 39.85 140.37 40.41 142.74 40.41 Z M 142.74 50.79 C 138.3 50.79 134.33 49.79 130.85 47.8 C 127.36 45.8 124.61 43.1 122.58 39.7 C 120.55 36.3 119.54 32.49 119.54 28.27 C 119.54 24.05 120.55 20.24 122.58 16.84 C 124.61 13.44 127.36 10.74 130.85 8.74 C 134.34 6.75 138.3 5.75 142.74 5.75 C 147.18 5.75 151.15 6.75 154.63 8.74 C 158.12 10.74 160.87 13.44 162.9 16.84 C 164.93 20.24 165.94 24.05 165.94 28.27 C 165.94 32.49 164.93 36.3 162.9 39.7 C 160.87 43.1 158.12 45.8 154.63 47.8 C 151.14 49.79 147.18 50.79 142.74 50.79 Z" fill="#2B307E" fill-rule="evenodd"/>
</svg>