<svg xmlns="http://www.w3.org/2000/svg" viewBox="120.55 50.24 46.86 29.4" width="46.86" height="29.4">
  <path d="M 142.93 67.75 C 146.08 70.81 151.11 70.79 154.23 67.68 L 165.41 56.5 C 163.83 54.92 161.93 53.87 159.91 53.33 C 155.82 52.24 151.28 53.29 148.07 56.5 L 139.87 64.7 L 139.87 64.7 L 142.92 67.74 L 142.93 67.75 Z" fill="#FF6A42" fill-rule="evenodd"/>
  <path d="M 154.23 67.68 C 151.11 70.78 146.08 70.8 142.93 67.75 L 139.88 64.71 L 139.88 64.71 C 136.67 61.51 132.13 60.46 128.04 61.56 C 126.03 62.1 124.13 63.16 122.55 64.74 L 131.23 73.39 C 134.44 76.59 138.98 77.64 143.07 76.55 C 145.08 76.01 146.97 74.96 148.55 73.38 L 148.55 73.38 L 154.26 67.67 C 154.26 67.67 154.25 67.68 154.24 67.69 L 154.23 67.68 Z" fill="#03CEA4" fill-rule="evenodd"/>
</svg>